<svg width="33" height="32" viewBox="0 0 33 32" fill="none" xmlns="http://www.w3.org/2000/svg">
<path d="M16.4353 32C25.2719 32 32.4353 24.8366 32.4353 16C32.4353 7.16344 25.2719 0 16.4353 0C7.59875 0 0.435303 7.16344 0.435303 16C0.435303 24.8366 7.59875 32 16.4353 32Z" fill="#7700E6"/>
<path d="M24.7431 14.1561C24.5802 14.1721 24.4151 14.1813 24.25 14.1813C22.4472 14.1813 20.7637 13.2731 19.7752 11.7639V19.9978C19.7752 23.3579 17.0504 26.0827 13.6903 26.0827C10.3302 26.0827 7.60547 23.3579 7.60547 19.9978C7.60547 16.6377 10.3302 13.913 13.6903 13.913C13.8165 13.913 13.9426 13.9244 14.0665 13.9313V16.929C13.9426 16.913 13.8188 16.8923 13.6903 16.8923C11.9747 16.8923 10.5848 18.2822 10.5848 19.9978C10.5848 21.7134 11.9747 23.1033 13.6903 23.1033C15.4059 23.1033 16.922 21.7524 16.922 20.0368L16.9518 6.05518H19.8211C20.0917 8.62857 22.1651 10.6377 24.7454 10.8258V14.1584" fill="white"/>
</svg>
