<svg width="33" height="32" viewBox="0 0 33 32" fill="none" xmlns="http://www.w3.org/2000/svg">
<path d="M16.4353 32C25.2719 32 32.4353 24.8366 32.4353 16C32.4353 7.16344 25.2719 0 16.4353 0C7.59875 0 0.435303 7.16344 0.435303 16C0.435303 24.8366 7.59875 32 16.4353 32Z" fill="#7700E6"/>
<path d="M21.4014 9.94702C20.7936 9.94702 20.3005 10.4401 20.3005 11.0479C20.3005 11.6557 20.7936 12.1489 21.4014 12.1489C22.0092 12.1489 22.5023 11.6557 22.5023 11.0479C22.5023 10.4401 22.0092 9.94702 21.4014 9.94702Z" fill="white"/>
<path d="M16.5116 11.3577C13.9635 11.3577 11.8923 13.4311 11.8923 15.9769C11.8923 18.5228 13.9658 20.5962 16.5116 20.5962C19.0575 20.5962 21.1309 18.5228 21.1309 15.9769C21.1309 13.4311 19.0575 11.3577 16.5116 11.3577ZM16.5116 18.9379C14.8786 18.9379 13.5529 17.61 13.5529 15.9792C13.5529 14.3485 14.8809 13.0205 16.5116 13.0205C18.1424 13.0205 19.4703 14.3485 19.4703 15.9792C19.4703 17.61 18.1424 18.9379 16.5116 18.9379Z" fill="white"/>
<path d="M20.1786 25.3577H12.6878C9.57997 25.3577 7.05249 22.8301 7.05249 19.7223V12.2315C7.05249 9.12371 9.57997 6.59619 12.6878 6.59619H20.1786C23.2864 6.59619 25.814 9.12371 25.814 12.2315V19.7223C25.814 22.8301 23.2864 25.3577 20.1786 25.3577ZM12.6878 8.36225C10.5547 8.36225 8.81853 10.0985 8.81853 12.2315V19.7223C8.81853 21.8554 10.5547 23.5916 12.6878 23.5916H20.1786C22.3117 23.5916 24.0479 21.8554 24.0479 19.7223V12.2315C24.0479 10.0962 22.3117 8.36225 20.1786 8.36225H12.6878Z" fill="white"/>
</svg>
