<svg width="33" height="32" viewBox="0 0 33 32" fill="none" xmlns="http://www.w3.org/2000/svg">
<path d="M16.4353 32C25.2719 32 32.4353 24.8366 32.4353 16C32.4353 7.16344 25.2719 0 16.4353 0C7.59875 0 0.435303 7.16344 0.435303 16C0.435303 24.8366 7.59875 32 16.4353 32Z" fill="#7700E6"/>
<path d="M25.0017 13.7131C25.0017 11.5915 23.2816 9.87134 21.16 9.87134H11.3343C9.21274 9.87134 7.49255 11.5915 7.49255 13.7131V18.2842C7.49255 20.4057 9.21274 22.1259 11.3343 22.1259H21.16C23.2816 22.1259 25.0017 20.4057 25.0017 18.2842V13.7131ZM19.2242 16.3415L14.8182 18.5204C14.6462 18.6144 14.0591 18.4883 14.0591 18.2933V13.8186C14.0591 13.619 14.6508 13.4952 14.8228 13.5938L19.0407 15.8874C19.2173 15.9883 19.4031 16.2429 19.2242 16.3415Z" fill="white"/>
</svg>
