<svg width="33" height="32" viewBox="0 0 33 32" fill="none" xmlns="http://www.w3.org/2000/svg">
<path d="M16.4353 32C25.2719 32 32.4353 24.8366 32.4353 16C32.4353 7.16344 25.2719 0 16.4353 0C7.59875 0 0.435303 7.16344 0.435303 16C0.435303 24.8366 7.59875 32 16.4353 32Z" fill="#7700E6"/>
<path d="M19.1029 9.50285C20.0402 8.56559 21.5598 8.56559 22.4971 9.50285C23.4343 10.4401 23.4343 11.9597 22.4971 12.897L18.8971 16.497C17.9598 17.4342 16.4402 17.4342 15.5029 16.497C15.0343 16.0283 14.2745 16.0283 13.8059 16.497C13.3373 16.9656 13.3373 17.7254 13.8059 18.194C15.6804 20.0685 18.7196 20.0685 20.5941 18.194L24.1941 14.594C26.0686 12.7195 26.0686 9.68031 24.1941 7.80579C22.3196 5.93127 19.2804 5.93127 17.4059 7.80579L15.6059 9.60579C15.1373 10.0744 15.1373 10.8342 15.6059 11.3028C16.0745 11.7715 16.8343 11.7715 17.3029 11.3028L19.1029 9.50285Z" fill="white"/>
<path d="M13.103 15.5028C14.0402 14.5656 15.5598 14.5656 16.4971 15.5028C16.9657 15.9715 17.7255 15.9715 18.1941 15.5028C18.6628 15.0342 18.6628 14.2744 18.1941 13.8058C16.3196 11.9313 13.2804 11.9313 11.4059 13.8058L7.80591 17.4058C5.9314 19.2803 5.9314 22.3195 7.80591 24.194C9.68043 26.0685 12.7196 26.0685 14.5941 24.194L16.3941 22.394C16.8628 21.9254 16.8628 21.1656 16.3941 20.697C15.9255 20.2283 15.1657 20.2283 14.6971 20.697L12.8971 22.497C11.9598 23.4342 10.4402 23.4342 9.50297 22.497C8.56571 21.5597 8.56571 20.0401 9.50297 19.1028L13.103 15.5028Z" fill="white"/>
</svg>
