<svg width="22" height="124" viewBox="0 0 22 124" fill="none" xmlns="http://www.w3.org/2000/svg">
<path d="M9.84911 1.77717C9.89917 1.22716 9.49388 0.740702 8.94387 0.69064C8.39386 0.640578 7.90741 1.04587 7.85734 1.59588L9.84911 1.77717ZM19.9492 41.8565L20.9451 41.9471L19.9492 41.8565ZM2.10016 75.8796L1.10428 75.789L2.10016 75.8796ZM11.8454 123.089C12.1989 123.513 12.8295 123.57 13.2538 123.217L20.1684 117.456C20.5927 117.103 20.6501 116.472 20.2966 116.048C19.9431 115.623 19.3125 115.566 18.8882 115.919L12.7419 121.04L7.62109 114.894C7.26757 114.47 6.63702 114.412 6.2127 114.766C5.78838 115.119 5.73099 115.75 6.08451 116.174L11.8454 123.089ZM7.66382 5.22372C7.65637 5.77596 8.09801 6.22967 8.65024 6.23712C9.20248 6.24457 9.65619 5.80293 9.66364 5.2507L7.66382 5.22372ZM10.2176 12.1079C10.1163 11.5649 9.59411 11.2069 9.05119 11.3082C8.50826 11.4094 8.15023 11.9317 8.2515 12.4746L10.2176 12.1079ZM10.3994 19.4564C10.6194 19.963 11.2084 20.1953 11.715 19.9753C12.2216 19.7553 12.4539 19.1663 12.2339 18.6598L10.3994 19.4564ZM15.5092 24.8012C15.225 24.3277 14.6107 24.1742 14.1372 24.4584C13.6636 24.7426 13.5102 25.3569 13.7944 25.8305L15.5092 24.8012ZM17.2065 31.9209C17.4373 32.4227 18.0311 32.6423 18.5329 32.4115C19.0346 32.1807 19.2543 31.5869 19.0235 31.0851L17.2065 31.9209ZM20.9711 38.2254C20.9257 37.675 20.4427 37.2655 19.8923 37.3109C19.3419 37.3562 18.9325 37.8392 18.9778 38.3896L20.9711 38.2254ZM18.5075 44.929C18.4009 45.4709 18.7537 45.9967 19.2956 46.1033C19.8375 46.2099 20.3632 45.8571 20.4699 45.3152L18.5075 44.929ZM18.2077 51.8057C18.47 51.3197 18.2886 50.713 17.8025 50.4508C17.3165 50.1885 16.7099 50.3699 16.4476 50.8559L18.2077 51.8057ZM12.6198 55.838C12.2298 56.2291 12.2306 56.8622 12.6217 57.2522C13.0127 57.6423 13.6459 57.6414 14.0359 57.2504L12.6198 55.838ZM9.27414 61.7953C9.65945 61.3996 9.65105 60.7665 9.25537 60.3812C8.8597 59.9959 8.22659 60.0043 7.84128 60.4L9.27414 61.7953ZM3.76127 65.9167C3.50728 66.4071 3.69895 67.0106 4.18936 67.2646C4.67978 67.5185 5.28324 67.3269 5.53723 66.8365L3.76127 65.9167ZM3.53624 72.7994C3.64046 72.2571 3.28528 71.7329 2.74292 71.6287C2.20055 71.5245 1.67639 71.8797 1.57217 72.422L3.53624 72.7994ZM0.961018 78.9609C0.964566 79.5132 1.41515 79.958 1.96742 79.9545C2.51969 79.9509 2.96452 79.5003 2.96098 78.9481L0.961018 78.9609ZM3.8505 84.6607C3.66881 84.1392 3.09873 83.8637 2.57718 84.0454C2.05564 84.2271 1.78013 84.7971 1.96182 85.3187L3.8505 84.6607ZM5.06071 90.9117C5.38221 91.3607 6.00687 91.4641 6.45594 91.1426C6.905 90.8211 7.00841 90.1965 6.68691 89.7474L5.06071 90.9117ZM10.1604 94.9357C9.89195 94.453 9.28306 94.2794 8.80041 94.5478C8.31776 94.8163 8.14412 95.4252 8.41257 95.9078L10.1604 94.9357ZM10.6413 101.36C10.7909 101.892 11.3431 102.201 11.8747 102.052C12.4064 101.902 12.7161 101.35 12.5665 100.818L10.6413 101.36ZM13.7252 107.004C13.6654 106.455 13.1719 106.058 12.6228 106.118C12.0738 106.178 11.6772 106.671 11.737 107.22L13.7252 107.004ZM12.0529 113.245C12.0552 113.798 12.5048 114.243 13.057 114.241C13.6093 114.239 14.0552 113.789 14.0529 113.237L12.0529 113.245ZM13.8514 119.449C13.8871 118.897 13.4692 118.422 12.9181 118.386C12.367 118.35 11.8913 118.768 11.8556 119.319L13.8514 119.449ZM7.85734 1.59588C7.74209 2.86213 7.67939 4.06964 7.66382 5.22372L9.66364 5.2507C9.67848 4.15027 9.73833 2.99428 9.84911 1.77717L7.85734 1.59588ZM8.2515 12.4746C8.74216 15.1052 9.50301 17.3921 10.3994 19.4564L12.2339 18.6598C11.3896 16.7155 10.6773 14.5726 10.2176 12.1079L8.2515 12.4746ZM13.7944 25.8305C15.0646 27.9467 16.2644 29.8727 17.2065 31.9209L19.0235 31.0851C18.0238 28.9119 16.751 26.8702 15.5092 24.8012L13.7944 25.8305ZM18.9778 38.3896C19.0644 39.441 19.0631 40.5599 18.9533 41.7658L20.9451 41.9471C21.065 40.6302 21.0675 39.3956 20.9711 38.2254L18.9778 38.3896ZM18.9533 41.7658C18.8494 42.9079 18.6985 43.9584 18.5075 44.929L20.4699 45.3152C20.6752 44.272 20.8354 43.1529 20.9451 41.9471L18.9533 41.7658ZM16.4476 50.8559C15.3764 52.8411 14.057 54.397 12.6198 55.838L14.0359 57.2504C15.5523 55.7299 17.0129 54.0198 18.2077 51.8057L16.4476 50.8559ZM7.84128 60.4C6.35055 61.9308 4.92511 63.6694 3.76127 65.9167L5.53723 66.8365C6.58321 64.8168 7.87144 63.2357 9.27414 61.7953L7.84128 60.4ZM1.57217 72.422C1.37145 73.4666 1.21381 74.5856 1.10428 75.789L3.09604 75.9703C3.20002 74.8279 3.34885 73.7746 3.53624 72.7994L1.57217 72.422ZM1.10428 75.789C1.00054 76.9287 0.954727 77.9817 0.961018 78.9609L2.96098 78.9481C2.95514 78.0403 2.99755 77.0524 3.09604 75.9703L1.10428 75.789ZM1.96182 85.3187C2.73294 87.5322 3.87151 89.2506 5.06071 90.9117L6.68691 89.7474C5.52306 88.1218 4.52386 86.5936 3.8505 84.6607L1.96182 85.3187ZM8.41257 95.9078C9.24849 97.4107 10.0231 99.1628 10.6413 101.36L12.5665 100.818C11.9033 98.4609 11.0667 96.565 10.1604 94.9357L8.41257 95.9078ZM11.737 107.22C11.931 109.001 12.0435 110.996 12.0529 113.245L14.0529 113.237C14.0433 110.926 13.9276 108.861 13.7252 107.004L11.737 107.22ZM11.8556 119.319C11.7925 120.294 11.7135 121.306 11.6178 122.358L13.6096 122.539C13.7068 121.471 13.7871 120.441 13.8514 119.449L11.8556 119.319Z" fill="#A94CFF"/>
</svg>
