<svg width="15" height="49" viewBox="0 0 15 49" fill="none" xmlns="http://www.w3.org/2000/svg">
<path d="M7.27903 1.70295C7.32909 1.15294 6.9238 0.666484 6.37379 0.616421C5.82378 0.566359 5.33732 0.971648 5.28726 1.52166L7.27903 1.70295ZM10.0147 15.1215L11.0106 15.2121L10.0147 15.1215ZM4.01209 26.5635L3.01621 26.4728L4.01209 26.5635ZM6.84069 47.9317C7.23121 48.3223 7.86437 48.3223 8.2549 47.9317L14.6189 41.5678C15.0094 41.1773 15.0094 40.5441 14.6189 40.1536C14.2283 39.763 13.5952 39.763 13.2046 40.1536L7.54779 45.8104L1.89094 40.1536C1.50041 39.763 0.867249 39.763 0.476724 40.1536C0.0861998 40.5441 0.0861998 41.1773 0.476724 41.5678L6.84069 47.9317ZM5.2248 3.43357C5.24169 3.9856 5.70289 4.41941 6.25491 4.40252C6.80694 4.38563 7.24075 3.92443 7.22386 3.3724L5.2248 3.43357ZM7.82626 6.5537C7.63369 6.03608 7.05796 5.77258 6.54034 5.96515C6.02271 6.15773 5.75921 6.73346 5.95179 7.25108L7.82626 6.5537ZM7.68331 10.5844C7.96738 11.058 8.58162 11.2117 9.05525 10.9276C9.52887 10.6436 9.68254 10.0293 9.39847 9.55571L7.68331 10.5844ZM10.9305 13.161C10.833 12.6174 10.3133 12.2557 9.76969 12.3532C9.22608 12.4507 8.86443 12.9704 8.96193 13.514L10.9305 13.161ZM8.76876 16.506C8.62784 17.04 8.9465 17.5872 9.48051 17.7281C10.0145 17.869 10.5616 17.5503 10.7026 17.0163L8.76876 16.506ZM8.91357 20.3272C9.28254 19.9162 9.24852 19.284 8.83757 18.915C8.42662 18.546 7.79437 18.5801 7.4254 18.991L8.91357 20.3272ZM5.05276 21.344C4.69052 21.7609 4.73483 22.3926 5.15173 22.7548C5.56862 23.117 6.20024 23.0727 6.56247 22.6558L5.05276 21.344ZM5.25417 25.1713C5.39101 24.6363 5.06818 24.0916 4.53312 23.9547C3.99805 23.8179 3.45337 24.1407 3.31653 24.6758L5.25417 25.1713ZM2.98747 28.4415C3.04093 28.9912 3.52988 29.3935 4.07957 29.34C4.62926 29.2865 5.03154 28.7976 4.97808 28.2479L2.98747 28.4415ZM6.45768 30.9736C6.19157 30.4896 5.58353 30.313 5.09958 30.5791C4.61564 30.8453 4.43905 31.4533 4.70516 31.9372L6.45768 30.9736ZM5.71936 35.0093C5.82945 35.5505 6.35743 35.9 6.89863 35.7899C7.43983 35.6798 7.78931 35.1518 7.67923 34.6106L5.71936 35.0093ZM8.19556 38.2336C8.14242 37.6838 7.65371 37.2813 7.10399 37.3344C6.55427 37.3875 6.1517 37.8762 6.20483 38.426L8.19556 38.2336ZM6.44258 41.9296C6.46692 42.4814 6.93393 42.9089 7.48567 42.8846C8.03742 42.8602 8.46497 42.3932 8.44064 41.8415L6.44258 41.9296ZM8.53733 45.4293C8.5307 44.877 8.07764 44.4347 7.5254 44.4414C6.97315 44.448 6.53084 44.901 6.53747 45.4533L8.53733 45.4293ZM5.28726 1.52166C5.22535 2.2019 5.20655 2.83711 5.2248 3.43357L7.22386 3.3724C7.20823 2.86158 7.22401 2.30746 7.27903 1.70295L5.28726 1.52166ZM5.95179 7.25108C6.44753 8.58358 7.12654 9.65612 7.68331 10.5844L9.39847 9.55571C8.8113 8.57673 8.24399 7.6765 7.82626 6.5537L5.95179 7.25108ZM8.96193 13.514C9.04302 13.9662 9.07051 14.4632 9.01885 15.0308L11.0106 15.2121C11.0781 14.4701 11.0439 13.7932 10.9305 13.161L8.96193 13.514ZM9.01885 15.0308C8.96744 15.5956 8.88067 16.0819 8.76876 16.506L10.7026 17.0163C10.8458 16.4735 10.9502 15.8762 11.0106 15.2121L9.01885 15.0308ZM7.4254 18.991C7.08605 19.369 6.71887 19.7065 6.30759 20.0871C5.90707 20.4578 5.46688 20.8674 5.05276 21.344L6.56247 22.6558C6.89601 22.272 7.26057 21.9302 7.66599 21.555C8.06064 21.1898 8.50057 20.7872 8.91357 20.3272L7.4254 18.991ZM3.31653 24.6758C3.17799 25.2175 3.07629 25.8127 3.01621 26.4728L5.00797 26.6541C5.05941 26.0889 5.14463 25.5996 5.25417 25.1713L3.31653 24.6758ZM3.01621 26.4728C2.94438 27.2619 2.93494 27.9014 2.98747 28.4415L4.97808 28.2479C4.94184 27.8753 4.94278 27.3703 5.00797 26.6541L3.01621 26.4728ZM4.70516 31.9372C5.03206 32.5317 5.3995 33.4368 5.71936 35.0093L7.67923 34.6106C7.32902 32.889 6.90308 31.7836 6.45768 30.9736L4.70516 31.9372ZM6.20483 38.426C6.30281 39.4396 6.3839 40.5992 6.44258 41.9296L8.44064 41.8415C8.38065 40.4817 8.29737 39.2869 8.19556 38.2336L6.20483 38.426ZM6.53747 45.4533C6.54428 46.0202 6.54779 46.6103 6.54779 47.2246H8.54779C8.54779 46.6027 8.54423 46.0046 8.53733 45.4293L6.53747 45.4533Z" fill="#A94CFF"/>
</svg>
