<svg width="116" height="21" viewBox="0 0 116 21" fill="none" xmlns="http://www.w3.org/2000/svg">
<path d="M9.04917 4.12702C9.34852 3.20571 10.6519 3.20571 10.9513 4.12702L12.0209 7.41882C12.1547 7.83084 12.5387 8.1098 12.9719 8.1098H16.4331C17.4018 8.1098 17.8046 9.34941 17.0209 9.91882L14.2207 11.9533C13.8702 12.2079 13.7236 12.6593 13.8575 13.0713L14.927 16.3631C15.2264 17.2844 14.1719 18.0505 13.3882 17.4811L10.588 15.4467C10.2375 15.192 9.76293 15.192 9.41244 15.4467L6.61227 17.4811C5.82856 18.0505 4.77408 17.2844 5.07343 16.3631L6.143 13.0713C6.27688 12.6593 6.13022 12.2079 5.77973 11.9533L2.97956 9.91881C2.19585 9.34941 2.59862 8.1098 3.56735 8.1098H7.02855C7.46177 8.1098 7.84573 7.83084 7.9796 7.41882L9.04917 4.12702Z" fill="#03DAC5"/>
<path d="M33.0492 4.12702C33.3485 3.20571 34.6519 3.20571 34.9513 4.12702L36.0209 7.41882C36.1547 7.83084 36.5387 8.1098 36.9719 8.1098H40.4331C41.4018 8.1098 41.8046 9.34941 41.0209 9.91882L38.2207 11.9533C37.8702 12.2079 37.7236 12.6593 37.8575 13.0713L38.927 16.3631C39.2264 17.2844 38.1719 18.0505 37.3882 17.4811L34.588 15.4467C34.2375 15.192 33.7629 15.192 33.4124 15.4467L30.6123 17.4811C29.8286 18.0505 28.7741 17.2844 29.0734 16.3631L30.143 13.0713C30.2769 12.6593 30.1302 12.2079 29.7797 11.9533L26.9796 9.91881C26.1958 9.34941 26.5986 8.1098 27.5673 8.1098H31.0285C31.4618 8.1098 31.8457 7.83084 31.9796 7.41882L33.0492 4.12702Z" fill="#03DAC5"/>
<path d="M57.0492 4.12702C57.3485 3.20571 58.6519 3.20571 58.9513 4.12702L60.0209 7.41882C60.1547 7.83084 60.5387 8.1098 60.9719 8.1098H64.4331C65.4018 8.1098 65.8046 9.34941 65.0209 9.91882L62.2207 11.9533C61.8702 12.2079 61.7236 12.6593 61.8575 13.0713L62.927 16.3631C63.2264 17.2844 62.1719 18.0505 61.3882 17.4811L58.588 15.4467C58.2375 15.192 57.7629 15.192 57.4124 15.4467L54.6123 17.4811C53.8286 18.0505 52.7741 17.2844 53.0734 16.3631L54.143 13.0713C54.2769 12.6593 54.1302 12.2079 53.7797 11.9533L50.9796 9.91881C50.1958 9.34941 50.5986 8.1098 51.5673 8.1098H55.0285C55.4618 8.1098 55.8457 7.83084 55.9796 7.41882L57.0492 4.12702Z" fill="#03DAC5"/>
<path d="M81.0492 4.12702C81.3485 3.20571 82.6519 3.20571 82.9513 4.12702L84.0209 7.41882C84.1547 7.83084 84.5387 8.1098 84.9719 8.1098H88.4331C89.4018 8.1098 89.8046 9.34941 89.0209 9.91882L86.2207 11.9533C85.8702 12.2079 85.7236 12.6593 85.8575 13.0713L86.927 16.3631C87.2264 17.2844 86.1719 18.0505 85.3882 17.4811L82.588 15.4467C82.2375 15.192 81.7629 15.192 81.4124 15.4467L78.6123 17.4811C77.8286 18.0505 76.7741 17.2844 77.0734 16.3631L78.143 13.0713C78.2769 12.6593 78.1302 12.2079 77.7797 11.9533L74.9796 9.91881C74.1958 9.34941 74.5986 8.1098 75.5673 8.1098H79.0285C79.4618 8.1098 79.8457 7.83084 79.9796 7.41882L81.0492 4.12702Z" fill="#03DAC5"/>
<path d="M105.049 4.12702C105.349 3.20571 106.652 3.20571 106.951 4.12702L108.021 7.41882C108.155 7.83084 108.539 8.1098 108.972 8.1098H112.433C113.402 8.1098 113.805 9.34941 113.021 9.91882L110.221 11.9533C109.87 12.2079 109.724 12.6593 109.857 13.0713L110.927 16.3631C111.226 17.2844 110.172 18.0505 109.388 17.4811L106.588 15.4467C106.238 15.192 105.763 15.192 105.412 15.4467L102.612 17.4811C101.829 18.0505 100.774 17.2844 101.073 16.3631L102.143 13.0713C102.277 12.6593 102.13 12.2079 101.78 11.9533L98.9796 9.91881C98.1958 9.34941 98.5986 8.1098 99.5673 8.1098H103.029C103.462 8.1098 103.846 7.83084 103.98 7.41882L105.049 4.12702Z" fill="#03DAC5"/>
</svg>
