<svg viewBox="0 0 54 54" fill="none" xmlns="http://www.w3.org/2000/svg">
<path fill-rule="evenodd" clip-rule="evenodd" d="M48.6004 27C48.6004 38.9293 38.9297 48.6 27.0004 48.6C15.071 48.6 5.40039 38.9293 5.40039 27C5.40039 15.0706 15.071 5.4 27.0004 5.4C38.9297 5.4 48.6004 15.0706 48.6004 27ZM29.7004 16.2C29.7004 17.6912 28.4916 18.9 27.0004 18.9C25.5092 18.9 24.3004 17.6912 24.3004 16.2C24.3004 14.7088 25.5092 13.5 27.0004 13.5C28.4916 13.5 29.7004 14.7088 29.7004 16.2ZM24.3004 24.3C22.8092 24.3 21.6004 25.5088 21.6004 27C21.6004 28.4912 22.8092 29.7 24.3004 29.7V37.8C24.3004 39.2912 25.5092 40.5 27.0004 40.5H29.7004C31.1916 40.5 32.4004 39.2912 32.4004 37.8C32.4004 36.3088 31.1916 35.1 29.7004 35.1V27C29.7004 25.5088 28.4916 24.3 27.0004 24.3H24.3004Z" fill="#A94CFF"/>
</svg>
