<svg viewBox="0 0 160 35" fill="none" xmlns="http://www.w3.org/2000/svg">
<g clip-path="url(#clip0_1041_1378)">
<path d="M7.13584 19.0941H1.80383C1.546 19.0815 1.28882 19.1294 1.05278 19.234C0.816751 19.3385 0.608427 19.4968 0.444434 19.6961C0.280441 19.8955 0.165302 20.1304 0.108252 20.3822C0.0512017 20.6339 0.05381 20.8955 0.115845 21.1461C0.636227 23.4992 1.6511 25.7148 3.09312 27.6458C4.53513 29.5767 6.37132 31.179 8.47983 32.3461C8.56208 32.3927 8.6552 32.4167 8.74971 32.4156C8.84422 32.4146 8.93677 32.3886 9.01799 32.3403C9.09922 32.292 9.16622 32.223 9.21221 32.1404C9.25819 32.0579 9.28152 31.9646 9.27983 31.8701V21.2181C9.27985 20.9375 9.22427 20.6596 9.11628 20.4006C9.00829 20.1416 8.85004 19.9066 8.65068 19.7091C8.45133 19.5116 8.21482 19.3556 7.95481 19.25C7.6948 19.1444 7.41645 19.0915 7.13584 19.0941Z" fill="#7700E6"/>
<path d="M19.3518 9.0021H14.0398C12.8668 9.0021 11.9158 9.95305 11.9158 11.1261V23.8741C11.9158 25.0472 12.8668 25.9981 14.0398 25.9981H19.3518C20.5249 25.9981 21.4758 25.0472 21.4758 23.8741V11.1261C21.4758 9.95305 20.5249 9.0021 19.3518 9.0021Z" fill="#7700E6"/>
<path d="M24.1318 3.1141V13.7821C24.1318 14.3427 24.3534 14.8805 24.7483 15.2784C25.1432 15.6762 25.6793 15.9019 26.2398 15.9061H31.5759C31.8335 15.9199 32.0908 15.8734 32.3273 15.7704C32.5638 15.6674 32.7731 15.5106 32.9385 15.3126C33.1039 15.1146 33.2208 14.8808 33.2801 14.6297C33.3394 14.3786 33.3393 14.1172 33.2798 13.8661C32.7592 11.5131 31.7442 9.2976 30.3022 7.36666C28.8602 5.43573 27.0242 3.83345 24.9158 2.6661C24.8363 2.62324 24.7472 2.60134 24.6568 2.60246C24.5665 2.60358 24.4779 2.62769 24.3995 2.67251C24.3211 2.71734 24.2553 2.78139 24.2085 2.85865C24.1617 2.93591 24.1353 3.02382 24.1318 3.1141Z" fill="#7700E6"/>
<path d="M16.6958 0.506104C15.2102 0.506843 13.731 0.701827 12.2958 1.0861C12.1813 1.11544 12.0798 1.18208 12.0074 1.27552C11.9349 1.36897 11.8957 1.48387 11.8958 1.6021V4.2221C11.8969 4.78579 12.1216 5.32602 12.5205 5.72424C12.9195 6.12245 13.4602 6.3461 14.0239 6.3461H19.3318C19.8952 6.3461 20.4354 6.12232 20.8337 5.72399C21.2321 5.32566 21.4558 4.78542 21.4558 4.2221V1.6061C21.4555 1.48754 21.4162 1.37237 21.3439 1.27839C21.2716 1.18441 21.1703 1.11684 21.0558 1.0861C19.6336 0.705357 18.1681 0.510403 16.6958 0.506104Z" fill="#7700E6"/>
<path d="M0.0358452 14.2381C-0.019018 14.5019 -0.0148709 14.7746 0.047979 15.0366C0.110829 15.2987 0.230828 15.5436 0.399395 15.7538C0.567962 15.964 0.780919 16.1344 1.02303 16.2527C1.26514 16.371 1.53042 16.4343 1.79986 16.4381H7.13584C7.69953 16.4381 8.2402 16.2145 8.63916 15.8162C9.03813 15.418 9.26279 14.8778 9.26385 14.3141V3.1141C9.26408 3.02234 9.24057 2.93209 9.19561 2.8521C9.15065 2.77211 9.08578 2.70511 9.00728 2.65761C8.92878 2.6101 8.83933 2.58371 8.74761 2.58099C8.6559 2.57828 8.56502 2.59933 8.48384 2.6421C6.31437 3.84083 4.43379 5.5002 2.9743 7.50355C1.5148 9.5069 0.511816 11.8056 0.0358452 14.2381Z" fill="#7700E6"/>
<path d="M19.3519 28.6661H14.0438C13.4795 28.6661 12.9382 28.8903 12.5391 29.2894C12.14 29.6884 11.9158 30.2297 11.9158 30.7941V33.4061C11.9155 33.5248 11.9546 33.6403 12.027 33.7344C12.0994 33.8286 12.201 33.896 12.3158 33.9261C15.188 34.7047 18.2157 34.7047 21.0878 33.9261C21.203 33.8966 21.305 33.8293 21.3775 33.7351C21.45 33.6408 21.4889 33.525 21.4878 33.4061V30.7941C21.4884 30.5138 21.4334 30.2362 21.3262 29.9773C21.2189 29.7183 21.0615 29.4832 20.8629 29.2854C20.6644 29.0875 20.4286 28.931 20.1693 28.8247C19.9099 28.7184 19.6321 28.6645 19.3519 28.6661Z" fill="#7700E6"/>
<path d="M33.3598 20.7621C33.4147 20.4983 33.4106 20.2256 33.3477 19.9636C33.2849 19.7015 33.1649 19.4566 32.9963 19.2464C32.8277 19.0362 32.6148 18.8658 32.3727 18.7475C32.1305 18.6292 31.8653 18.5659 31.5958 18.5621H26.2398C25.6765 18.5621 25.1363 18.7859 24.7379 19.1842C24.3396 19.5825 24.1158 20.1228 24.1158 20.6861V31.8861C24.1156 31.9779 24.1391 32.0681 24.1841 32.1481C24.229 32.2281 24.2939 32.2951 24.3724 32.3426C24.4509 32.3901 24.5404 32.4165 24.6321 32.4192C24.7238 32.4219 24.8147 32.4009 24.8958 32.3581C27.068 31.1607 28.9514 29.502 30.4136 27.4986C31.8759 25.4952 32.8816 23.1958 33.3598 20.7621Z" fill="#7700E6"/>
<path d="M51.148 20.8421H47.516V28.9421H42.96V8.41407C42.96 7.98973 43.1285 7.58277 43.4286 7.28271C43.7286 6.98265 44.1356 6.81407 44.56 6.81407H51.184C53.8 6.81407 55.816 7.39675 57.232 8.56208C58.648 9.72741 59.3573 11.3727 59.36 13.4981C59.4079 14.8253 59.0673 16.1377 58.38 17.2741C57.6427 18.3451 56.6102 19.1788 55.408 19.6741L60.208 28.7101V28.9261H56.84C56.375 28.9257 55.9191 28.797 55.5225 28.5542C55.1258 28.3115 54.8039 27.964 54.592 27.5501L51.148 20.8421ZM47.516 17.1501H51.192C52.1554 17.2061 53.1034 16.8896 53.84 16.2661C54.1586 15.9561 54.4073 15.5816 54.5694 15.1677C54.7315 14.7538 54.8033 14.31 54.78 13.8661C54.8053 13.4174 54.7397 12.9682 54.5871 12.5454C54.4345 12.1227 54.1981 11.7352 53.892 11.4061C53.3 10.8061 52.392 10.5101 51.164 10.5101H47.504L47.516 17.1501Z" fill="#212121"/>
<path d="M69.66 29.2461C67.26 29.2461 65.2973 28.5061 63.772 27.0261C62.2466 25.5461 61.4893 23.5767 61.5 21.1181V20.6901C61.4741 19.1598 61.8027 17.6443 62.46 16.2621C63.0482 15.0143 63.9916 13.968 65.172 13.2541C66.382 12.539 67.7666 12.1734 69.172 12.1981C71.42 12.1981 73.1906 12.9074 74.484 14.3261C75.7773 15.7447 76.4226 17.7554 76.42 20.3581V20.5581C76.42 20.9824 76.2514 21.3894 75.9513 21.6894C75.6513 21.9895 75.2443 22.1581 74.82 22.1581H65.952C66.0526 23.1454 66.509 24.0624 67.236 24.7381C67.9807 25.4003 68.9521 25.7499 69.948 25.7141C70.7079 25.7479 71.4647 25.5984 72.1547 25.2782C72.8446 24.9579 73.4473 24.4763 73.912 23.8741L76.072 26.2741C75.3893 27.2254 74.4657 27.9778 73.396 28.4541C72.2236 28.9884 70.9483 29.2587 69.66 29.2461ZM69.16 15.7381C68.7633 15.7235 68.3683 15.7953 68.0022 15.9487C67.6361 16.102 67.3078 16.3331 67.04 16.6261C66.4417 17.3434 66.0787 18.2274 66 19.1581H72.104V18.8061C72.1353 17.9759 71.8492 17.1649 71.304 16.5381C71.0218 16.2631 70.6854 16.05 70.3162 15.9122C69.9471 15.7745 69.5533 15.7152 69.16 15.7381Z" fill="#212121"/>
<path d="M88.436 28.9421C88.2121 28.4765 88.0636 27.9783 87.996 27.4661C87.4765 28.0498 86.8348 28.5119 86.1165 28.8195C85.3982 29.1272 84.6209 29.2728 83.84 29.2461C82.3784 29.2967 80.951 28.7971 79.84 27.8461C79.3279 27.4147 78.9186 26.8745 78.6418 26.2649C78.365 25.6552 78.2277 24.9915 78.24 24.3221C78.2038 23.5464 78.3624 22.774 78.7012 22.0753C79.0401 21.3767 79.5484 20.7739 80.18 20.3221C81.468 19.3941 83.3346 18.9234 85.78 18.9101H87.78V17.9701C87.8147 17.3111 87.607 16.6623 87.196 16.1461C86.9585 15.9026 86.6698 15.7149 86.3509 15.5966C86.032 15.4783 85.6908 15.4324 85.352 15.4621C84.7269 15.4248 84.1093 15.6136 83.612 15.9941C83.4025 16.1733 83.2367 16.398 83.1272 16.651C83.0177 16.904 82.9673 17.1787 82.98 17.4541H78.64C78.6391 16.5007 78.9479 15.5728 79.52 14.8101C80.1594 13.957 81.0216 13.2968 82.012 12.9021C83.1524 12.429 84.3774 12.1936 85.612 12.2101C87.636 12.2101 89.244 12.7194 90.436 13.7381C91.628 14.7567 92.2293 16.1834 92.24 18.0181V25.1421C92.24 26.7021 92.468 27.8821 92.892 28.6821V28.9421H88.436ZM84.804 25.8861C85.4278 25.8923 86.0435 25.7439 86.596 25.4541C87.1052 25.1973 87.5238 24.7912 87.796 24.2901V21.4661H86.156C83.9586 21.4661 82.7893 22.2261 82.648 23.7461V24.0021C82.6403 24.2561 82.6882 24.5087 82.7884 24.7422C82.8886 24.9758 83.0386 25.1846 83.228 25.3541C83.6647 25.7286 84.2296 25.9193 84.804 25.8861Z" fill="#212121"/>
<path d="M102.428 25.7061C103.148 25.7386 103.853 25.4986 104.404 25.0341C104.657 24.8132 104.86 24.5402 104.998 24.2336C105.136 23.9271 105.207 23.5943 105.204 23.2581H109.32C109.317 24.3446 109 25.4071 108.408 26.3181C107.805 27.2497 106.956 27.997 105.956 28.4781C104.882 28.9957 103.704 29.2585 102.512 29.2461C100.165 29.2461 98.312 28.4981 96.952 27.0021C95.592 25.5061 94.9133 23.4434 94.916 20.8141V20.5221C94.916 17.9941 95.5906 15.9741 96.94 14.4621C98.2893 12.9501 100.137 12.1954 102.484 12.1981C104.54 12.1981 106.188 12.7834 107.428 13.9541C108.668 15.1247 109.299 16.6821 109.32 18.6261H105.204C105.215 17.8544 104.928 17.1082 104.404 16.5421C104.146 16.275 103.834 16.0656 103.49 15.9277C103.145 15.7899 102.775 15.7266 102.404 15.7421C101.954 15.7166 101.505 15.806 101.099 16.002C100.693 16.1979 100.344 16.4939 100.084 16.8621C99.564 17.6061 99.284 18.8181 99.284 20.4901V20.9461C99.284 22.6421 99.5426 23.8594 100.06 24.5981C100.327 24.9699 100.685 25.267 101.099 25.4609C101.514 25.6549 101.971 25.7393 102.428 25.7061Z" fill="#212121"/>
<path d="M117.072 8.46208V12.5021H119.872V15.7021H117.072V23.9061C117.031 24.37 117.156 24.8335 117.424 25.2141C117.656 25.4781 118.104 25.6141 118.76 25.6141C119.193 25.6187 119.626 25.5826 120.052 25.5061V28.8341C119.19 29.0996 118.294 29.2344 117.392 29.2341C114.315 29.2341 112.745 27.6794 112.684 24.5701V15.7221H110.284V12.5221H112.684V10.0741C112.684 9.64973 112.853 9.24276 113.153 8.94271C113.453 8.64265 113.86 8.47408 114.284 8.47408L117.072 8.46208Z" fill="#212121"/>
<path d="M122.3 8.26608C122.291 7.96372 122.344 7.66272 122.458 7.38237C122.572 7.10203 122.743 6.84851 122.96 6.63807C123.469 6.22423 124.104 5.99829 124.76 5.99829C125.416 5.99829 126.051 6.22423 126.56 6.63807C126.992 7.07211 127.235 7.65963 127.235 8.27208C127.235 8.88453 126.992 9.47205 126.56 9.90608C126.058 10.322 125.426 10.5496 124.774 10.5496C124.122 10.5496 123.49 10.322 122.988 9.90608C122.764 9.69706 122.586 9.44276 122.468 9.16002C122.349 8.87729 122.292 8.57258 122.3 8.26608ZM126.964 28.9581H122.564V12.5181H126.964V28.9581Z" fill="#212121"/>
<path d="M136.732 23.5781L139.356 14.0621C139.479 13.6137 139.747 13.2182 140.117 12.9364C140.487 12.6546 140.939 12.502 141.404 12.5021H144.376L138.828 28.9421H134.64L129.096 12.5021H132.064C132.529 12.502 132.981 12.6546 133.351 12.9364C133.721 13.2182 133.988 13.6137 134.112 14.0621L136.732 23.5781Z" fill="#212121"/>
<path d="M153.24 29.2461C150.84 29.2461 148.877 28.5061 147.352 27.0261C145.827 25.5461 145.069 23.5767 145.08 21.1181V20.6901C145.054 19.1598 145.383 17.6443 146.04 16.2621C146.628 15.0143 147.572 13.968 148.752 13.2541C149.962 12.539 151.347 12.1734 152.752 12.1981C155 12.1981 156.771 12.9074 158.064 14.3261C159.357 15.7447 160.003 17.7554 160 20.3581V20.5581C160 20.9824 159.831 21.3894 159.531 21.6894C159.231 21.9895 158.824 22.1581 158.4 22.1581H149.524C149.625 23.1454 150.081 24.0624 150.808 24.7381C151.553 25.4003 152.524 25.7499 153.52 25.7141C154.28 25.7479 155.037 25.5984 155.727 25.2782C156.417 24.9579 157.019 24.4763 157.484 23.8741L159.644 26.2741C158.961 27.2254 158.038 27.9778 156.968 28.4541C155.798 28.9872 154.526 29.2576 153.24 29.2461ZM152.74 15.7381C152.343 15.7235 151.948 15.7953 151.582 15.9487C151.216 16.102 150.888 16.3331 150.62 16.6261C150.022 17.3434 149.659 18.2274 149.58 19.1581H155.684V18.8061C155.715 17.9759 155.429 17.1649 154.884 16.5381C154.602 16.2631 154.265 16.05 153.896 15.9122C153.527 15.7745 153.133 15.7152 152.74 15.7381Z" fill="#212121"/>
</g>
<defs>
<clipPath id="clip0_1041_1378">
<rect width="160" height="33.988" fill="white" transform="translate(0 0.506104)"/>
</clipPath>
</defs>
</svg>
