<svg viewBox="0 0 32 32" fill="none" xmlns="http://www.w3.org/2000/svg">
<path d="M16 32C24.8366 32 32 24.8366 32 16C32 7.16344 24.8366 0 16 0C7.16344 0 0 7.16344 0 16C0 24.8366 7.16344 32 16 32Z" fill="#7700E6"/>
<path d="M24.3332 15.9998C24.3332 11.3975 20.6022 7.6665 15.9998 7.6665C11.3975 7.6665 7.6665 11.3975 7.6665 15.9998C7.6665 20.1592 10.7139 23.6068 14.6978 24.2319V18.4087H12.5819V15.9998H14.6978V14.1639C14.6978 12.0754 15.9419 10.9217 17.8454 10.9217C18.7571 10.9217 19.7108 11.0845 19.7108 11.0845V13.1353H18.66C17.6248 13.1353 17.3019 13.7776 17.3019 14.4366V15.9998H19.6131L19.2437 18.4087H17.3019V24.2319C21.2858 23.6068 24.3332 20.1592 24.3332 15.9998Z" fill="white"/>
</svg>
