<svg viewBox="0 0 32 32" fill="none" xmlns="http://www.w3.org/2000/svg">
<path d="M16 32C24.8366 32 32 24.8366 32 16C32 7.16344 24.8366 0 16 0C7.16344 0 0 7.16344 0 16C0 24.8366 7.16344 32 16 32Z" fill="#7700E6"/>
<path d="M24.3332 8.89199V23.1077C24.3332 23.4327 24.2041 23.7444 23.9742 23.9742C23.7444 24.2041 23.4327 24.3332 23.1077 24.3332H8.89199C8.56697 24.3332 8.25527 24.2041 8.02544 23.9742C7.79562 23.7444 7.6665 23.4327 7.6665 23.1077V8.89199C7.6665 8.56697 7.79562 8.25527 8.02544 8.02544C8.25527 7.79562 8.56697 7.6665 8.89199 7.6665H23.1077C23.4327 7.6665 23.7444 7.79562 23.9742 8.02544C24.2041 8.25527 24.3332 8.56697 24.3332 8.89199V8.89199ZM12.5685 14.0391H10.1175V21.8822H12.5685V14.0391ZM12.7891 11.343C12.7903 11.1576 12.7551 10.9737 12.6853 10.802C12.6156 10.6302 12.5127 10.4738 12.3825 10.3418C12.2523 10.2098 12.0974 10.1047 11.9266 10.0326C11.7558 9.96048 11.5725 9.92269 11.3871 9.92141H11.343C10.966 9.92141 10.6044 10.0712 10.3378 10.3378C10.0712 10.6044 9.92141 10.966 9.92141 11.343C9.92141 11.72 10.0712 12.0816 10.3378 12.3482C10.6044 12.6148 10.966 12.7645 11.343 12.7645V12.7645C11.5284 12.7691 11.7129 12.7371 11.8859 12.6703C12.0589 12.6036 12.2171 12.5034 12.3514 12.3754C12.4857 12.2475 12.5935 12.0944 12.6686 11.9248C12.7437 11.7552 12.7846 11.5725 12.7891 11.3871V11.343ZM21.8822 17.1175C21.8822 14.7596 20.3822 13.843 18.892 13.843C18.4041 13.8185 17.9183 13.9225 17.4831 14.1444C17.0478 14.3663 16.6784 14.6984 16.4116 15.1077H16.343V14.0391H14.0391V21.8822H16.49V17.7106C16.4546 17.2834 16.5892 16.8594 16.8645 16.5308C17.1399 16.2022 17.5338 15.9956 17.9606 15.9557H18.0538C18.8332 15.9557 19.4116 16.4459 19.4116 17.6812V21.8822H21.8626L21.8822 17.1175Z" fill="white"/>
</svg>
