<svg viewBox="0 0 32 32" fill="none" xmlns="http://www.w3.org/2000/svg">
<path d="M16 32C24.8366 32 32 24.8366 32 16C32 7.16344 24.8366 0 16 0C7.16344 0 0 7.16344 0 16C0 24.8366 7.16344 32 16 32Z" fill="#7700E6"/>
<path d="M24.3332 10.9373C23.7203 11.2089 23.0618 11.3924 22.3697 11.4754C23.0758 11.0526 23.6175 10.3817 23.8729 9.58306C23.2123 9.97503 22.4805 10.2598 21.7017 10.4125C21.0778 9.74895 20.1896 9.3335 19.206 9.3335C17.3181 9.3335 15.787 10.8647 15.787 12.754C15.787 13.0212 15.8178 13.2811 15.8751 13.5321C13.0322 13.389 10.5138 12.0274 8.82699 9.95888C8.53338 10.4654 8.36456 11.0526 8.36456 11.678C8.36456 12.8641 8.96866 13.9116 9.88545 14.5245C9.32466 14.5061 8.79763 14.3527 8.33666 14.0966V14.1406C8.33666 15.7973 9.51477 17.1794 11.0797 17.4936C10.792 17.5714 10.4903 17.6125 10.1791 17.6125C9.95885 17.6125 9.74378 17.592 9.53532 17.5523C9.97059 18.9103 11.2331 19.8997 12.7298 19.9261C11.559 20.8437 10.0844 21.3905 8.48273 21.3905C8.20674 21.3905 7.93442 21.3744 7.6665 21.3428C9.18005 22.3139 10.9769 22.8791 12.9074 22.8791C19.198 22.8791 22.6369 17.669 22.6369 13.1504C22.6369 13.0036 22.6332 12.8553 22.6266 12.7085C23.2945 12.2255 23.8744 11.6244 24.3317 10.9395L24.3332 10.9373Z" fill="white"/>
</svg>
