<svg viewBox="0 0 32 32" fill="none" xmlns="http://www.w3.org/2000/svg">
<path d="M16 32C24.8366 32 32 24.8366 32 16C32 7.16344 24.8366 0 16 0C7.16344 0 0 7.16344 0 16C0 24.8366 7.16344 32 16 32Z" fill="#7700E6"/>
<path d="M7.6665 24.3332L8.84277 20.0574C8.12002 18.8031 7.74047 17.3805 7.74233 15.9329C7.73396 11.3711 11.4385 7.6665 15.9915 7.6665C18.2012 7.6665 20.2761 8.52322 21.8383 10.086C22.6084 10.8521 23.2187 11.7633 23.6341 12.767C24.0494 13.7706 24.2614 14.8467 24.2578 15.9329C24.2578 20.4858 20.5533 24.1904 15.9998 24.1904C14.6138 24.1904 13.2613 23.8457 12.0515 23.1825L7.6665 24.3332ZM12.245 21.6956L12.4971 21.8467C13.5552 22.4728 14.762 22.8035 15.9915 22.8044C19.7719 22.8044 22.8551 19.7216 22.8551 15.9408C22.8551 14.1096 22.1411 12.3795 20.8472 11.086C20.2109 10.4461 19.4543 9.93847 18.6209 9.59235C17.7875 9.24622 16.8939 9.06844 15.9915 9.06926C12.2027 9.06975 9.12047 12.1525 9.12047 15.9334C9.12047 17.2268 9.48187 18.4957 10.1707 19.5877L10.3302 19.8482L9.63302 22.3849L12.2455 21.696L12.245 21.6956Z" fill="white"/>
<path fill-rule="evenodd" clip-rule="evenodd" d="M13.9334 12.472C13.7822 12.1274 13.6143 12.119 13.4715 12.119C13.3455 12.1106 13.2106 12.1106 13.0678 12.1106C12.9339 12.1106 12.7069 12.1608 12.5139 12.3711C12.3204 12.5808 11.7916 13.0766 11.7916 14.0929C11.7916 15.1096 12.5306 16.0924 12.6315 16.2268C12.732 16.3612 14.0594 18.5114 16.1599 19.3435C17.9068 20.0323 18.2598 19.8979 18.6379 19.8556C19.0156 19.8137 19.8561 19.3602 20.0323 18.8728C20.2002 18.3942 20.2002 17.9742 20.15 17.89C20.0998 17.8063 19.9565 17.7556 19.7551 17.6463C19.5449 17.5459 18.537 17.0417 18.344 16.9742C18.1505 16.9073 18.0161 16.8738 17.8817 17.0752C17.7473 17.2854 17.3524 17.7473 17.2268 17.8817C17.1086 18.0161 16.9831 18.0328 16.7812 17.9319C16.5715 17.8314 15.9078 17.6128 15.118 16.9073C14.5045 16.3607 14.0929 15.6808 13.9668 15.4794C13.8497 15.2692 13.9501 15.1599 14.0594 15.0589C14.152 14.9668 14.2697 14.8157 14.3706 14.698C14.471 14.5798 14.5045 14.4878 14.5803 14.3534C14.6473 14.2189 14.6138 14.0929 14.5636 13.9925C14.5129 13.8999 14.1185 12.8831 13.9334 12.4715V12.472Z" fill="white"/>
</svg>
