<svg width="64" height="64" viewBox="0 0 64 64" fill="none" xmlns="http://www.w3.org/2000/svg">
<g clip-path="url(#clip0)">
<path d="M50 66C47.7909 66 46 64.2091 46 62V38C46 35.7909 47.7909 34 50 34H60C62.2091 34 64 35.7909 64 38V62C64 64.2091 62.2091 66 60 66H50Z" fill="#7700E6"/>
<path d="M50 29C47.7909 29 46 27.2091 46 25V1C46 -1.20914 47.7909 -3 50 -3H60C62.2091 -3 64 -1.20914 64 1V25C64 27.2091 62.2091 29 60 29H50Z" fill="#7700E6"/>
<path d="M4 67C1.79086 67 0 65.2091 0 63V39C0 36.7909 1.79086 35 4 35H14C16.2091 35 18 36.7909 18 39V63C18 65.2091 16.2091 67 14 67H4Z" fill="#7700E6"/>
<path d="M4 30C1.79086 30 0 28.2091 0 26V2C0 -0.209139 1.79086 -2 4 -2H14C16.2091 -2 18 -0.209139 18 2V26C18 28.2091 16.2091 30 14 30H4Z" fill="#7700E6"/>
<path d="M27 85C24.7909 85 23 83.2091 23 81V57C23 54.7909 24.7909 53 27 53H37C39.2091 53 41 54.7909 41 57V81C41 83.2091 39.2091 85 37 85H27Z" fill="#7700E6"/>
<path d="M27 48C24.7909 48 23 46.2091 23 44V20C23 17.7909 24.7909 16 27 16H37C39.2091 16 41 17.7909 41 20V44C41 46.2091 39.2091 48 37 48H27Z" fill="#7700E6"/>
<path d="M27 11C24.7909 11 23 9.20914 23 7V-17C23 -19.2091 24.7909 -21 27 -21H37C39.2091 -21 41 -19.2091 41 -17V7C41 9.20914 39.2091 11 37 11H27Z" fill="#7700E6"/>
</g>
<defs>
<clipPath id="clip0">
<rect y="64" width="64" height="64" rx="32" transform="rotate(-90 0 64)" fill="white"/>
</clipPath>
</defs>
</svg>
