<svg fill="none" height="36" viewBox="0 0 70 36" width="70" xmlns="http://www.w3.org/2000/svg" xmlns:xlink="http://www.w3.org/1999/xlink"><clipPath id="a"><path d="m0 .614502h70v34.7709h-70z"/></clipPath><g clip-path="url(#a)" fill="#000"><path d="m11.0944 4.35821h-.5035c-2.01414 0-3.57422.69235-4.6803 2.07704s-1.66163 3.84355-1.66667 7.37665c0 1.1245.10658 1.9083.31974 2.3514.1316.2405.23871.4935.31974.7553-1.64317 0-2.86841-.3424-3.67573-1.0272-.807319-.6847-1.21013915-1.8194-1.20846074-3.4038-.02291786-2.081.53039074-4.12783 1.59869074-5.91388 1.06579-1.77912 2.76267-3.21752 5.09064-4.31521 2.32796-1.09768 5.28865-1.645683 8.88215-1.644004 1.5139.035659 3.0236.172757 4.5192.410374.1837.03021.9063.12336 2.1701.27442 1.2799.15423 2.5679.23074 3.857.2291 2.2326.00543 4.4559-.28667 6.6113-.868577-.3642 2.014097-.9886 3.692517-1.8731 5.035247-.3932.64269-.95 1.16945-1.6135 1.52642-.6635.35696-1.4099.53134-2.1629.5053-.9851.0137-1.9677-.10141-2.923-.34239-1.0369-.28857-2.058-.63144-3.0589-1.0272-1.2185-.45652-2.4211-.85179-3.6077-1.1858l-1.9638 9.1415h5.7528l-.7301 3.3786h-5.7553l-3.6984 17.1627h-6.56346zm10.4355 29.40589c-.8979-.9114-1.3477-2.281-1.3494-4.1088.0285-.9988.1516-1.9927.3676-2.9683l1.2588-5.7653c.2378-1.0921.8418-2.0701 1.7119-2.7717.8701-.7015 1.9539-1.0845 3.0716-1.0853h2.6284l-2.281 10.4884c-.1255.4765-.1873.9675-.1838 1.4602 0 .6093.1443 1.0431.433 1.3016s.7687.3877 1.4401.3877c.8812 0 1.7028-.3726 2.4648-1.1178.6518-.6504 1.1483-1.4396 1.4526-2.3087.0615-.1721.1744-.3213.3235-.4271.149-.1058.3271-.1633.5099-.1645.145.0005.2877.0364.4157.1046.1281.0682.2375.1666.3189.2866.0813.1201.1322.2582.1481.4024s-.0037.29-.0569.4249c-1.0541 2.6251-2.3498 4.4487-3.8873 5.4708-1.7673 1.1749-3.5179 1.7624-5.2517 1.7624-1.4586-.0017-2.6368-.4591-3.5348-1.3721z"/><path d="m42.3966 33.4695c-.9281-1.279-1.6205-3.2881-2.077-6.0272l-6.2941 7.6712h-3.2955l9.2245-10.4129-.7301-5.1133c-.2433-1.4904-.4951-2.4975-.7553-3.0212-.2601-.5236-.5874-.7821-.9818-.7754-.6093 0-1.2941.4196-2.0544 1.2588s-1.4938 2.1039-2.2004 3.7941c-.7151 1.7401-1.2795 3.5384-1.6868 5.3751-.0483.2053-.1647.3882-.3302.5189s-.3703.2016-.5812.2011c-.1422.0022-.2829-.0281-.4117-.0884-.1287-.0603-.242-.1492-.3313-.2598-.0893-.1107-.1522-.2402-.184-.3787-.0318-.1386-.0316-.2826.0005-.4211.8728-3.6422 2.1022-6.7741 3.6883-9.3958 1.7506-2.8902 4.0265-4.3353 6.8278-4.3353 1.6415 0 2.8357.5396 3.5826 1.6188.7662 1.1328 1.2315 2.4419 1.352 3.8042l.4103 3.4743c1.0825-1.1706 2.0598-2.4343 2.9205-3.7765.6395-1.0507.9894-1.9864 1.0498-2.8071-.4255.0604-.6848.0906-.7754.0906-.7603 0-1.3083-.2358-1.644-.7074-.3571-.5491-.5331-1.1962-.5035-1.8505-.0197-.3358.0527-.6706.2093-.9683s.3915-.547.6794-.721c.6729-.38598 1.4403-.57609 2.2155-.54885.7905 0 1.4149.41965 1.8731 1.25885.4695.8934.7051 1.8912.6848 2.9003 0 1.3427-.4565 2.6896-1.3696 4.0407-.913 1.3512-2.5705 3.325-4.9723 5.9215l.4104 3.1949c.1812 1.4635.4934 2.4907.9365 3.0815.2178.2931.5045.5278.8348.6833.3303.1554.6939.2269 1.0585.208.8828 0 1.7053-.3726 2.4673-1.1179.7939-.805 1.361-1.8055 1.644-2.9003h1.9159c-1.096 3.1672-2.4958 5.3668-4.1994 6.5987-1.7036 1.232-3.408 1.848-5.1133 1.848-1.4015 0-2.5663-.6387-3.4945-1.9159z"/><path d="m54.519 33.628c-1.247-1.1749-1.8706-3.0085-1.8706-5.501 0-2.1014.4104-4.4151 1.2312-6.9411.7961-2.4744 2.178-4.72 4.0281-6.5458 1.8581-1.8462 4.2179-2.7694 7.0796-2.7694 3.3468 0 5.0252 1.4611 5.0352 4.3832.0072 1.6807-.5035 3.3228-1.4627 4.7029-.9927 1.4482-2.3246 2.6315-3.8796 3.4467-1.5927.8627-3.3536 1.3695-5.1612 1.4854-.0604.6696-.0906 1.1253-.0906 1.3695 0 2.5277.9433 3.7865 2.8298 3.7765.9532-.0236 1.8894-.2574 2.7417-.6848.9607-.4483 1.8518-1.0325 2.646-1.7347-.8207 4.5066-3.4533 6.759-7.8978 6.7573-2.2356.0084-3.9786-.5731-5.2291-1.7447zm8.5599-11.0775c1.0244-.7348 1.8681-1.693 2.4673-2.8021.6124-1.0958.9347-2.3298.9366-3.5851 0-1.2488-.3802-1.8731-1.1405-1.8731-1.0675 0-2.1257.9667-3.1747 2.9003-1.0903 2.0452-1.8821 4.2359-2.3515 6.5055 1.1792-.0386 2.3185-.4365 3.2654-1.1405z"/><path d="m26.6966 16.0551c1.9466 0 3.5246-1.5781 3.5246-3.5247s-1.578-3.52466-3.5246-3.52466c-1.9467 0-3.5247 1.57806-3.5247 3.52466s1.578 3.5247 3.5247 3.5247z"/></g></svg>